<svg data-v-0dd9719b="" version="1.0" xmlns="http://www.w3.org/2000/svg" xmlns:xlink="http://www.w3.org/1999/xlink" width="100%" height="100%" viewBox="0 0 340.000000 250.000000" preserveAspectRatio="xMidYMid meet" color-interpolation-filters="sRGB" style="margin: auto;"> <rect data-v-0dd9719b="" x="0" y="0" width="100%" height="100%" fill="#fff" fill-opacity="1" class="background"></rect> <rect data-v-0dd9719b="" x="0" y="0" width="100%" height="100%" fill="url(#watermark)" fill-opacity="1" class="watermarklayer"></rect> <g data-v-0dd9719b="" fill="#333" class="icon-text-wrapper icon-svg-group iconsvg" transform="translate(49.2449951171875,87.9400863647461)"><g class="iconsvg-imagesvg" transform="translate(0,0)"><g><rect fill="#333" fill-opacity="0" stroke-width="2" x="0" y="0" width="60" height="74.11982705373687" class="image-rect"></rect> <svg x="0" y="0" width="60" height="74.11982705373687" filtersec="colorsb1881205100" class="image-svg-svg primary" style="overflow: visible;"><svg xmlns="http://www.w3.org/2000/svg" viewBox="0 0 80.94999694824219 100"><title>资源 154</title><path fill="#333" d="M0 57.14L61.91 100l19.04-9.52V4.76L76.19 0v80.95L30.95 48.81l25-13.1v29.24l2.38 1.72v-38.1L0 57.14z"></path><path fill="#4545c4" d="M0 54.76V38.09l73.81-36.9v76.19l-13.1-9.52V23.81L0 54.76z"></path></svg></svg> <!----></g></g> <g transform="translate(67,11.608661651611328)"><g data-gra="path-name" fill-rule="" class="tp-name iconsvg-namesvg" transform="translate(0,0)"><g transform="scale(1)"><g><path d="M3.42-18.13L3.42-25.43 20.75-25.43 19.71-27.54 22.86-29.11 24.7-25.43 37.66-25.43 37.66-26.23 41.22-26.23 41.22-18.13 37.66-18.13 37.66-21.87 6.97-21.87 6.97-18.13 3.42-18.13ZM41.71-15.12L41.71-11.56 25.11-11.56 25.11 2.38Q25.11 4.09 23.92 5.26 22.72 6.43 21.06 6.43L21.06 6.43 16.25 6.43 16.25 2.92 21.06 2.92Q21.55 2.92 21.55 2.38L21.55 2.38 21.55-11.56 3.06-11.56 3.06-15.12 41.71-15.12ZM48.1-25.47L50.27-28.26 57.83-22.36 55.66-19.57 48.1-25.47ZM57.83-12.91L55.66-10.13 48.1-16.02 50.27-18.81 57.83-12.91ZM50.72 6.3L47.66 4.59 54.72-7.96 57.78-6.21 50.72 6.3ZM71.95-28.35L75.47-28.35 75.47-24.79 87.21-24.79 87.21-22.05 85.19-17.28 81.9-18.68 83.03-21.24 75.47-21.24 75.47-15.57 81.45-15.57 81.45-16.43 85-16.43 85-10.75 84.78-10.39Q84.73-10.3 84.38-9.67 84.02-9.04 83.16-8.01 82.31-6.97 80.95-5.56 79.6-4.14 77.63-2.52L77.63-2.52 86.58 3.19 84.64 6.21 74.61-0.22Q72.41 1.35 69.64 2.97 66.87 4.59 63.36 6.25L63.36 6.25 61.83 3.06Q64.75 1.67 67.12 0.34 69.48-0.99 71.41-2.29L71.41-2.29 64.26-6.88 66.19-9.9 74.47-4.54Q77.81-7.15 79.4-9.07 81-10.98 81.45-11.65L81.45-11.65 81.45-12.01 64.94-12.01 64.94-15.57 71.95-15.57 71.95-21.24 63.27-21.24 63.27-9.27Q63.27-6.66 62.66-3.89 62.05-1.13 61.31 1.19 60.57 3.51 59.92 5.04 59.27 6.57 59.22 6.71L59.22 6.71 57.6 5.98 55.98 5.26Q55.98 5.22 56.27 4.57 56.56 3.92 56.97 2.81 57.38 1.71 57.87 0.27 58.37-1.17 58.77-2.79 59.17-4.41 59.45-6.08 59.72-7.74 59.72-9.27L59.72-9.27 59.72-24.79 71.95-24.79 71.95-28.35ZM103.19-24.66L101.83-21.38 93.11-25.02 94.45-28.3 103.19-24.66ZM93.69 6.84L92.07 3.69Q94.64 2.34 96.1 0.85 97.56-0.63 98.26-1.91 98.95-3.19 99.14-4.07 99.31-4.95 99.31-5.08L99.31-5.08 99.31-16.2 92.83-16.2 92.83-19.75 102.87-19.75 102.87-5Q102.87-4.91 102.8-4.39 102.73-3.87 102.51-3.04 102.28-2.21 101.81-1.13 101.34-0.04 100.48 1.17L100.48 1.17Q100.75 1.44 101.25 1.75 101.75 2.07 102.44 2.38 103.14 2.7 104.02 2.9 104.89 3.1 105.97 3.1L105.97 3.1 132.16 3.1 132.16 6.66 105.97 6.66Q104.49 6.66 103.25 6.37 102.02 6.08 101.03 5.63 100.03 5.17 99.31 4.68 98.59 4.18 98.14 3.78L98.14 3.78Q96.34 5.44 93.69 6.84L93.69 6.84ZM106.42 1.62L104.31-1.21Q104.31-1.21 105.1-1.84 105.89-2.48 107.06-3.55 108.22-4.63 109.64-6.1 111.06-7.56 112.36-9.25 113.67-10.93 114.7-12.82 115.74-14.71 116.14-16.65L116.14-16.65 116.14-18.13 104.72-18.13 104.72-21.69 116.14-21.69 116.14-28.3 119.7-28.3 119.7-21.69 131.13-21.69 131.13-18.13 119.7-18.13 119.7-16.34 119.66-16.16Q119.2-13.86 118.08-11.68 116.95-9.49 115.54-7.56 114.12-5.63 112.57-3.98 111.02-2.34 109.69-1.13 108.36 0.09 107.46 0.81 106.56 1.53 106.42 1.62L106.42 1.62ZM118.89-10.17L121.55-12.46 131.76-0.54 129.06 1.75 118.89-10.17ZM153.54 4.77L153.54 1.21 168.93 1.21 168.93 4.77 153.54 4.77ZM153.36-7.83L152.59-9.4Q152.64-9.4 153.31-9.76 153.99-10.13 155.03-10.78 156.06-11.43 157.3-12.35 158.53-13.28 159.66-14.45L159.66-14.45 152.69-14.45 152.69-18 162.27-18Q162.68-18.86 162.9-19.66L162.9-19.66 154.08-19.66 154.08-23.22 157.91-23.22 154.94-26.14 157.41-28.66 162-24.21 161.01-23.22 163.08-23.22 163.08-28.39 166.63-28.39 166.63-23.22 168.7-23.22 167.76-24.21 172.35-28.66 174.82-26.14 171.81-23.22 176-23.22 176-19.66 166.5-19.66Q166.37-18.77 166.09-18L166.09-18 177.39-18 177.39-14.45 171.72-14.45 177.57-9.49 175.28-6.84 173.66-8.19 172.22-3.55 173.38-3.55 173.38-4.27 176.89-4.27 176.89 2.61Q176.89 4.27 175.72 5.47 174.56 6.66 172.84 6.66L172.84 6.66 170.37 6.66 170.37 3.1 172.84 3.1Q173.07 3.1 173.23 2.97 173.38 2.83 173.38 2.61L173.38 2.61 173.38 0 156.38 0 157.32-6.25 160.78-5.71 160.47-3.55 168.48-3.55 169.56-6.93 158.44-6.93 158.44-8.82Q156.74-7.65 155.52-6.97 154.31-6.3 154.13-6.21L154.13-6.21 153.36-7.83ZM167.49-14.45L164.25-14.45Q163.49-13.32 162.52-12.33 161.55-11.34 160.56-10.48L160.56-10.48 170.95-10.48 167-13.86 167.49-14.45ZM143.96 3.06L147.74 3.06Q147.96 3.06 148.12 2.9 148.28 2.75 148.28 2.52L148.28 2.52 148.28-4.91 142.34-4.91Q142.11-2.61 141.75-0.54 141.39 1.53 141.01 3.13 140.63 4.72 140.35 5.69 140.09 6.66 140.04 6.75L140.04 6.75 138.38 6.21 136.66 5.67Q136.66 5.63 137.03 4.39 137.38 3.15 137.81 1.13 138.24-0.9 138.6-3.44 138.96-5.98 138.96-8.64L138.96-8.64 138.96-27.27 148.28-27.27 148.28-28.08 151.78-28.08 151.78 2.52Q151.78 4.23 150.62 5.4 149.44 6.57 147.74 6.57L147.74 6.57 143.96 6.57 143.96 3.06ZM148.28-23.76L142.51-23.76 142.51-18.36 148.28-18.36 148.28-23.76ZM142.51-8.41L148.28-8.41 148.28-14.8 142.51-14.8 142.51-8.64 142.51-8.41Z" transform="translate(-3.059999942779541, 29.110000610351562)"></path></g> <!----> <!----> <!----> <!----> <!----> <!----> <!----></g></g> <g data-gra="path-slogan" fill-rule="" class="tp-slogan iconsvg-slogansvg" fill="#333" transform="translate(37.99000549316406,41.95000076293945)"><!----> <!----> <g transform="scale(1, 1)"><g transform="scale(1)"><path d="M2.30-8.58L6.61-1.64L6.61-8.58L7.73-8.58L7.73 0L6.42 0L2.06-6.94L2.02-6.94L2.02 0L0.89 0L0.89-8.58L2.30-8.58ZM9.70-8.58L10.88-8.58L10.88 0L9.70 0L9.70-8.58ZM14.25-8.58L18.56-1.64L18.56-8.58L19.69-8.58L19.69 0L18.38 0L14.02-6.94L13.97-6.94L13.97 0L12.84 0L12.84-8.58L14.25-8.58ZM27.89-3.61L25.27-3.61L25.27-4.59L29.02-4.59L29.02 0L28.27 0L27.98-1.08Q27 0.09 25.17 0.14L25.17 0.14Q23.44 0.14 22.50-0.75L22.50-0.75Q21.09-2.06 21.14-4.36L21.14-4.36Q21.47-8.63 25.22-8.81L25.22-8.81Q28.41-8.63 28.88-6L28.88-6L27.75-6Q27.28-7.78 25.17-7.83L25.17-7.83Q22.50-7.64 22.36-4.31L22.36-4.31Q22.36-0.75 25.22-0.75L25.22-0.75Q26.25-0.75 27-1.31L27-1.31Q27.94-2.06 27.89-3.61L27.89-3.61ZM34.03-7.64L31.97-7.64L31.97-4.97L34.03-4.97Q35.86-4.92 35.81-6.38L35.81-6.38Q35.81-7.64 34.03-7.64L34.03-7.64ZM34.50 0L30.80 0L30.80-8.58L34.59-8.58Q36.89-8.48 36.98-6.42L36.98-6.42Q36.98-5.16 35.86-4.64L35.86-4.64Q37.45-4.08 37.45-2.53L37.45-2.53Q37.31-0.09 34.50 0L34.50 0ZM34.22-3.98L31.97-3.98L31.97-0.98L34.45-0.98Q36.23-1.03 36.28-2.53L36.28-2.53Q36.28-3.98 34.22-3.98L34.22-3.98ZM45.56-4.27L45.56-4.27Q45.38-7.64 42.56-7.83L42.56-7.83Q39.70-7.69 39.56-4.27L39.56-4.27Q39.70-0.94 42.56-0.80L42.56-0.80Q45.38-0.98 45.56-4.27ZM46.73-4.27L46.73-4.27Q46.45 0 42.56 0.14L42.56 0.14Q38.63 0 38.34-4.27L38.34-4.27Q38.58-8.72 42.56-8.81L42.56-8.81Q46.45-8.67 46.73-4.27ZM54.94 0L51.47 0L51.47-8.58L54.98-8.58Q58.45-8.39 58.59-4.41L58.59-4.41Q58.41-0.09 54.94 0L54.94 0ZM54.80-7.64L52.64-7.64L52.64-0.98L54.89-0.98Q57.33-1.13 57.42-4.31L57.42-4.31Q57.38-7.55 54.80-7.64L54.80-7.64ZM65.72 0L64.88-2.48L61.41-2.48L60.52 0L59.34 0L62.58-8.58L63.89-8.58L66.98 0L65.72 0ZM63.14-7.31L61.78-3.52L64.45-3.52L63.19-7.31L63.14-7.31ZM70.22-7.59L67.31-7.59L67.31-8.58L74.25-8.58L74.25-7.59L71.34-7.59L71.34 0L70.22 0L70.22-7.59ZM76.59-1.03L81.75-1.03L81.75 0L75.42 0L75.42-8.58L81.66-8.58L81.66-7.59L76.59-7.59L76.59-4.92L81.28-4.92L81.28-3.89L76.59-3.89L76.59-1.03ZM84.66-8.58L88.97-1.64L88.97-8.58L90.09-8.58L90.09 0L88.78 0L84.42-6.94L84.38-6.94L84.38 0L83.25 0L83.25-8.58L84.66-8.58ZM98.30-3.61L95.67-3.61L95.67-4.59L99.42-4.59L99.42 0L98.67 0L98.39-1.08Q97.41 0.09 95.58 0.14L95.58 0.14Q93.84 0.14 92.91-0.75L92.91-0.75Q91.50-2.06 91.55-4.36L91.55-4.36Q91.88-8.63 95.63-8.81L95.63-8.81Q98.81-8.63 99.28-6L99.28-6L98.16-6Q97.69-7.78 95.58-7.83L95.58-7.83Q92.91-7.64 92.77-4.31L92.77-4.31Q92.77-0.75 95.63-0.75L95.63-0.75Q96.66-0.75 97.41-1.31L97.41-1.31Q98.34-2.06 98.30-3.61L98.30-3.61Z" transform="translate(-0.890625, 8.8125)"></path></g></g></g></g></g><defs v-gra="od"></defs></svg>